# xmcd
#
# Track frame offsets: 
#        150
#        13310
#        23840
#        31895
#        43560
#        53382
#        63127
#        73422
#        84732
#        94150
#        104252
#        116505
#
# Disc length: 1713 seconds
#
# Revision: 2
# Processed by: cddbd v1.5.2PL0 Copyright (c) Steve Scherf et al.
# Submitted via: ExactAudioCopyFreeDBPlugin 1.0
#
DISCID=9706af0c
DTITLE=Bill Monroe - Greatest Hits
DYEAR=2003
DGENRE=Country
TTITLE0=Orange Blossom Special
TTITLE1=Uncle Penn
TTITLE2=Footprints in the Snow
TTITLE3=Bluegrass Breakdown
TTITLE4=I Saw the Light
TTITLE5=Shady Grove
TTITLE6=Shenendoah Breakdown
TTITLE7=Mule Skinner Blues (Blues Yodel No. 8)
TTITLE8=The Prisoners Song
TTITLE9=Blue Moon of Kentucky
TTITLE10=Can't You Hear Me Callin'
TTITLE11=Nine Pound Hammer Is Too Heavy
EXTD=
EXTT0=
EXTT1=
EXTT2=
EXTT3=
EXTT4=
EXTT5=
EXTT6=
EXTT7=
EXTT8=
EXTT9=
EXTT10=
EXTT11=
PLAYORDER=
